<svg width="128" height="24" viewBox="0 0 128 24" fill="none" xmlns="http://www.w3.org/2000/svg">
<path d="M12.368 20.16L8.576 13.992H5.096V20.16H0.728V0.599999H8.6C10.232 0.599999 11.64 0.879999 12.824 1.44C14.008 1.984 14.912 2.76 15.536 3.768C16.16 4.776 16.472 5.952 16.472 7.296C16.472 8.64 16.16 9.816 15.536 10.824C14.928 11.816 14.048 12.584 12.896 13.128L17.432 20.16H12.368ZM5.096 10.128H8.408C9.576 10.128 10.48 9.888 11.12 9.408C11.776 8.912 12.104 8.208 12.104 7.296C12.104 6.384 11.776 5.688 11.12 5.208C10.48 4.712 9.576 4.464 8.408 4.464H5.096V10.128ZM19.4546 0.599999H26.9666C28.6466 0.599999 30.0866 0.895999 31.2866 1.488C32.5026 2.08 33.4306 2.912 34.0706 3.984C34.7106 5.056 35.0306 6.312 35.0306 7.752C35.0306 9.208 34.7106 10.48 34.0706 11.568C33.4306 12.64 32.5026 13.472 31.2866 14.064C30.0866 14.656 28.6466 14.952 26.9666 14.952H23.8226V20.16H19.4546V0.599999ZM26.7746 11.088C28.0066 11.088 28.9586 10.8 29.6306 10.224C30.3186 9.648 30.6626 8.824 30.6626 7.752C30.6626 6.68 30.3186 5.864 29.6306 5.304C28.9586 4.744 28.0066 4.464 26.7746 4.464H23.8226V11.088H26.7746ZM46.9843 0.0959988C48.6483 0.0959988 50.1603 0.383999 51.5203 0.959999C52.8963 1.536 54.0403 2.32 54.9523 3.312C55.8803 4.304 56.5363 5.416 56.9203 6.648H52.1203C51.6883 5.896 51.0243 5.288 50.1283 4.824C49.2483 4.344 48.2323 4.104 47.0803 4.104C45.9123 4.104 44.8563 4.376 43.9123 4.92C42.9683 5.448 42.2243 6.192 41.6803 7.152C41.1523 8.096 40.8883 9.168 40.8883 10.368C40.8883 11.568 41.1523 12.656 41.6803 13.632C42.2243 14.592 42.9683 15.344 43.9123 15.888C44.8563 16.432 45.9123 16.704 47.0803 16.704C48.0563 16.704 48.9443 16.528 49.7443 16.176C50.5443 15.824 51.1923 15.36 51.6883 14.784C52.2003 14.192 52.5363 13.568 52.6963 12.912H46.7203V9.216H57.3523V10.368C57.3523 12.32 56.8963 14.08 55.9843 15.648C55.0883 17.2 53.8483 18.416 52.2643 19.296C50.6963 20.192 48.9363 20.64 46.9843 20.64C45.0003 20.64 43.2083 20.192 41.6083 19.296C40.0243 18.416 38.7763 17.2 37.8643 15.648C36.9683 14.08 36.5203 12.32 36.5203 10.368C36.5203 8.416 36.9683 6.664 37.8643 5.112C38.7763 3.544 40.0243 2.32 41.6083 1.44C43.2083 0.543999 45.0003 0.0959988 46.9843 0.0959988ZM72.4891 19.616C71.2198 19.616 70.0731 19.328 69.0491 18.752C68.0251 18.176 67.2198 17.376 66.6331 16.352C66.0571 15.328 65.7691 14.1813 65.7691 12.912C65.7691 11.6427 66.0571 10.496 66.6331 9.472C67.2198 8.448 68.0251 7.648 69.0491 7.072C70.0731 6.496 71.2198 6.208 72.4891 6.208C73.5665 6.208 74.5371 6.40533 75.4011 6.8C76.2758 7.184 76.9958 7.72267 77.5611 8.416C78.1371 9.10933 78.5371 9.90933 78.7611 10.816H77.0491C76.7718 9.888 76.2331 9.14667 75.4331 8.592C74.6331 8.03733 73.6625 7.76 72.5211 7.76C71.5505 7.76 70.6811 7.984 69.9131 8.432C69.1451 8.86933 68.5425 9.47733 68.1051 10.256C67.6678 11.0347 67.4491 11.92 67.4491 12.912C67.4491 13.8933 67.6678 14.7787 68.1051 15.568C68.5425 16.3467 69.1451 16.96 69.9131 17.408C70.6918 17.8453 71.5611 18.064 72.5211 18.064C73.2998 18.064 74.0145 17.9253 74.6651 17.648C75.3158 17.36 75.8545 16.9707 76.2811 16.48C76.7185 15.9893 77.0171 15.44 77.1771 14.832H78.8891C78.6971 15.728 78.3078 16.5387 77.7211 17.264C77.1451 17.9893 76.4038 18.56 75.4971 18.976C74.5905 19.4027 73.5878 19.616 72.4891 19.616ZM85.1603 9.952C86.0456 9.952 86.8456 10.16 87.5603 10.576C88.2749 10.992 88.8296 11.568 89.2243 12.304C89.6296 13.0293 89.8323 13.8453 89.8323 14.752C89.8323 15.6587 89.6296 16.48 89.2243 17.216C88.8296 17.9413 88.2749 18.512 87.5603 18.928C86.8456 19.344 86.0456 19.552 85.1603 19.552C84.2643 19.552 83.4589 19.344 82.7443 18.928C82.0403 18.512 81.4856 17.9413 81.0803 17.216C80.6749 16.48 80.4723 15.6587 80.4723 14.752C80.4723 13.8453 80.6749 13.0293 81.0803 12.304C81.4856 11.568 82.0403 10.992 82.7443 10.576C83.4589 10.16 84.2643 9.952 85.1603 9.952ZM85.1603 11.408C84.5629 11.408 84.0296 11.5573 83.5603 11.856C83.1016 12.144 82.7389 12.544 82.4723 13.056C82.2163 13.5573 82.0883 14.1227 82.0883 14.752C82.0883 15.3813 82.2163 15.952 82.4723 16.464C82.7389 16.9653 83.1016 17.3653 83.5603 17.664C84.0296 17.952 84.5629 18.096 85.1603 18.096C85.7469 18.096 86.2749 17.952 86.7443 17.664C87.2136 17.3653 87.5763 16.9653 87.8323 16.464C88.0883 15.952 88.2163 15.3813 88.2163 14.752C88.2163 14.1227 88.0883 13.5573 87.8323 13.056C87.5763 12.544 87.2136 12.144 86.7443 11.856C86.2749 11.5573 85.7469 11.408 85.1603 11.408ZM95.9846 19.552C95.1313 19.552 94.358 19.344 93.6646 18.928C92.982 18.512 92.4433 17.936 92.0486 17.2C91.654 16.464 91.4566 15.648 91.4566 14.752C91.4566 13.856 91.654 13.04 92.0486 12.304C92.4433 11.568 92.982 10.992 93.6646 10.576C94.358 10.16 95.1313 9.952 95.9846 9.952C96.7633 9.952 97.4353 10.1067 98.0006 10.416C98.566 10.7253 98.9766 11.0987 99.2326 11.536V6.112H100.881V19.328H99.2326V17.968C98.9766 18.4053 98.566 18.7787 98.0006 19.088C97.4353 19.3973 96.7633 19.552 95.9846 19.552ZM96.1286 18.096C96.7366 18.096 97.2753 17.952 97.7446 17.664C98.2246 17.3653 98.598 16.9653 98.8646 16.464C99.1313 15.952 99.2646 15.3813 99.2646 14.752C99.2646 14.1227 99.1313 13.5573 98.8646 13.056C98.598 12.544 98.2246 12.144 97.7446 11.856C97.2753 11.5573 96.7366 11.408 96.1286 11.408C95.5313 11.408 94.998 11.552 94.5286 11.84C94.07 12.128 93.7126 12.528 93.4566 13.04C93.2006 13.552 93.0726 14.1227 93.0726 14.752C93.0726 15.3813 93.2006 15.952 93.4566 16.464C93.7126 16.976 94.07 17.376 94.5286 17.664C94.998 17.952 95.5313 18.096 96.1286 18.096ZM104.284 5.952C104.604 5.952 104.865 6.05867 105.068 6.272C105.281 6.47467 105.388 6.73067 105.388 7.04C105.388 7.34933 105.281 7.61067 105.068 7.824C104.865 8.02667 104.604 8.128 104.284 8.128C103.975 8.128 103.713 8.02667 103.5 7.824C103.297 7.61067 103.196 7.34933 103.196 7.04C103.196 6.73067 103.297 6.47467 103.5 6.272C103.713 6.05867 103.975 5.952 104.284 5.952ZM103.468 19.344V10.176H105.116V19.344H103.468ZM109.35 10.176V11.568C109.585 11.152 109.969 10.7787 110.502 10.448C111.046 10.1173 111.697 9.952 112.454 9.952C113.169 9.952 113.804 10.1173 114.358 10.448C114.924 10.7787 115.361 11.248 115.67 11.856C115.98 12.4533 116.134 13.1573 116.134 13.968V19.328H114.486V14.256C114.486 13.3387 114.273 12.6347 113.846 12.144C113.43 11.6427 112.849 11.392 112.102 11.392C111.58 11.392 111.11 11.5413 110.694 11.84C110.278 12.128 109.948 12.5173 109.702 13.008C109.468 13.4987 109.35 14.0267 109.35 14.592V19.328H107.702V10.176H109.35ZM122.948 23.44C121.711 23.44 120.719 23.1307 119.972 22.512C119.236 21.904 118.783 21.1307 118.612 20.192H120.292C120.399 20.7253 120.671 21.1627 121.108 21.504C121.556 21.8453 122.169 22.016 122.948 22.016C123.791 22.016 124.468 21.7493 124.98 21.216C125.503 20.6933 125.764 19.9893 125.764 19.104V17.84C125.508 18.2773 125.097 18.6507 124.532 18.96C123.967 19.2693 123.295 19.424 122.516 19.424C121.663 19.424 120.889 19.216 120.196 18.8C119.513 18.3947 118.975 17.8347 118.58 17.12C118.185 16.3947 117.988 15.5893 117.988 14.704C117.988 13.8187 118.185 13.0133 118.58 12.288C118.975 11.5627 119.513 10.992 120.196 10.576C120.889 10.16 121.663 9.952 122.516 9.952C123.295 9.952 123.967 10.1067 124.532 10.416C125.097 10.7253 125.508 11.0987 125.764 11.536V10.176H127.412V19.12C127.412 19.952 127.22 20.6933 126.836 21.344C126.463 22.0053 125.935 22.5173 125.252 22.88C124.58 23.2533 123.812 23.44 122.948 23.44ZM122.66 18C123.268 18 123.807 17.856 124.276 17.568C124.756 17.28 125.129 16.8853 125.396 16.384C125.663 15.8827 125.796 15.3227 125.796 14.704C125.796 14.0853 125.663 13.5253 125.396 13.024C125.129 12.5227 124.756 12.128 124.276 11.84C123.807 11.552 123.268 11.408 122.66 11.408C122.063 11.408 121.529 11.552 121.06 11.84C120.601 12.128 120.244 12.5227 119.988 13.024C119.732 13.5253 119.604 14.0853 119.604 14.704C119.604 15.3227 119.732 15.8827 119.988 16.384C120.244 16.8853 120.601 17.28 121.06 17.568C121.529 17.856 122.063 18 122.66 18Z" fill="black"/>
</svg>
